<svg width="564" height="110" viewBox="0 0 564 110" fill="none" xmlns="http://www.w3.org/2000/svg">
<path d="M102.312 5.90955V102.993H96.2363V20.2482C96.2363 19.059 96.3046 17.8012 96.4411 16.4747L58.4163 84.3282C57.7791 85.5174 56.8689 86.1121 55.6856 86.1121H54.5933C53.41 86.1121 52.4998 85.5174 51.8626 84.3282L12.8139 16.3393C12.9504 17.7115 13.0187 19.015 13.0187 20.25V102.994H6.87479V5.91132H11.7218C12.3589 5.91132 12.8595 5.97993 13.2236 6.11714C13.5878 6.25436 13.9519 6.62028 14.3159 7.2149L53.2962 74.7245C53.9789 76.0052 54.5706 77.3774 55.0712 78.841C55.3443 78.1092 55.6401 77.4002 55.9586 76.7141C56.2772 75.9823 56.6186 75.2962 56.9826 74.6559L94.8706 7.21401C95.2347 6.61942 95.5988 6.2535 95.9629 6.11626C96.3725 5.97904 96.8959 5.91043 97.533 5.91043L102.312 5.90955Z" fill="#EDE9EB"/>
<path d="M173.244 61.9607C173.244 58.3016 172.721 55.0313 171.674 52.1497C170.673 49.2224 169.239 46.7525 167.373 44.7402C165.507 42.7276 163.277 41.1954 160.683 40.1433C158.134 39.0456 155.313 38.4967 152.218 38.4967C148.714 38.4967 145.573 39.0456 142.797 40.1433C140.021 41.2411 137.608 42.8191 135.561 44.8773C133.558 46.9356 131.943 49.4055 130.714 52.2869C129.485 55.1684 128.666 58.3931 128.256 61.9608L173.244 61.9607ZM127.915 66.1458V67.4494C127.915 72.5721 128.506 77.0775 129.689 80.9654C130.873 84.8533 132.557 88.1236 134.741 90.7763C136.926 93.3835 139.565 95.3502 142.66 96.6764C145.755 98.0027 149.214 98.6659 153.037 98.6661C156.45 98.6661 159.408 98.3002 161.911 97.5683C164.414 96.7908 166.508 95.9446 168.192 95.0298C169.921 94.0692 171.287 93.2231 172.288 92.4912C173.289 91.7137 174.017 91.3249 174.473 91.3249C175.064 91.3249 175.519 91.5536 175.838 92.0109L177.613 94.2065C176.521 95.5786 175.064 96.8593 173.244 98.0486C171.469 99.2378 169.466 100.267 167.236 101.136C165.052 101.959 162.685 102.622 160.136 103.126C157.633 103.629 155.107 103.88 152.559 103.88C147.917 103.88 143.684 103.08 139.861 101.479C136.039 99.8324 132.762 97.4539 130.031 94.3435C127.3 91.2332 125.184 87.4368 123.682 82.9544C122.226 78.4263 121.498 73.2577 121.498 67.4486C121.498 62.5544 122.18 58.0491 123.546 53.9326C124.957 49.7703 126.959 46.2026 129.553 43.2296C132.193 40.2108 135.402 37.8553 139.179 36.1629C143.002 34.4706 147.325 33.6244 152.15 33.6244C155.973 33.6244 159.522 34.2876 162.799 35.614C166.076 36.9405 168.921 38.8844 171.333 41.4459C173.745 43.9616 175.633 47.0718 176.999 50.7765C178.409 54.4813 179.115 58.735 179.115 63.5375C179.115 64.5438 178.978 65.2299 178.705 65.5958C178.432 65.9617 177.977 66.1446 177.34 66.1446L127.915 66.1458Z" fill="#EDE9EB"/>
<path d="M215.159 104.091C210.562 104.091 206.967 102.81 204.373 100.249C201.825 97.6875 200.55 93.731 200.55 88.3794V41.7255H190.788C190.288 41.7255 189.878 41.5883 189.559 41.3139C189.241 41.0394 189.082 40.6506 189.082 40.1475V37.6089L200.687 36.7856L202.326 12.3609C202.417 11.9492 202.599 11.5833 202.872 11.2631C203.145 10.9429 203.532 10.7828 204.032 10.7828H207.104V36.854H228.54V41.7253H207.104V88.0363C207.104 89.9117 207.332 91.5354 207.787 92.9076C208.288 94.234 208.947 95.3318 209.767 96.2008C210.631 97.0698 211.633 97.7102 212.77 98.1218C213.908 98.5335 215.137 98.7393 216.457 98.7393C218.095 98.7393 219.506 98.5106 220.689 98.0532C221.873 97.5501 222.897 97.0241 223.761 96.4752C224.626 95.8806 225.332 95.3546 225.878 94.8972C226.424 94.3941 226.856 94.1425 227.175 94.1425C227.539 94.1425 227.903 94.3712 228.267 94.8286L230.042 97.7102C228.313 99.6313 226.105 101.186 223.42 102.376C220.78 103.519 218.027 104.091 215.16 104.091L215.159 104.091Z" fill="#EDE9EB"/>
<path d="M290.798 61.9607C290.798 58.3016 290.275 55.0313 289.228 52.1497C288.227 49.2224 286.793 46.7525 284.927 44.7402C283.061 42.7276 280.831 41.1954 278.237 40.1433C275.688 39.0456 272.867 38.4967 269.772 38.4967C266.268 38.4967 263.128 39.0456 260.351 40.1433C257.575 41.2411 255.163 42.8191 253.115 44.8773C251.112 46.9356 249.497 49.4055 248.268 52.2869C247.039 55.1684 246.22 58.3931 245.81 61.9608L290.798 61.9607ZM245.469 66.1458V67.4494C245.469 72.5721 246.06 77.0775 247.244 80.9654C248.427 84.8533 250.111 88.1236 252.295 90.7763C254.48 93.3835 257.12 95.3502 260.214 96.6764C263.309 98.0027 266.768 98.6659 270.591 98.6661C274.004 98.6661 276.962 98.3002 279.465 97.5683C281.968 96.7908 284.062 95.9446 285.746 95.0298C287.476 94.0692 288.841 93.2231 289.842 92.4912C290.843 91.7137 291.572 91.3249 292.027 91.3249C292.618 91.3249 293.073 91.5536 293.392 92.0109L295.167 94.2065C294.075 95.5786 292.618 96.8593 290.798 98.0486C289.023 99.2378 287.021 100.267 284.79 101.136C282.606 101.959 280.239 102.622 277.69 103.126C275.187 103.629 272.662 103.88 270.113 103.88C265.471 103.88 261.239 103.08 257.416 101.479C253.593 99.8324 250.316 97.4539 247.585 94.3435C244.854 91.2332 242.738 87.4368 241.236 82.9544C239.78 78.4263 239.052 73.2577 239.052 67.4486C239.052 62.5544 239.735 58.0491 241.1 53.9326C242.511 49.7703 244.513 46.2026 247.108 43.2296C249.747 40.2108 252.956 37.8553 256.733 36.1629C260.556 34.4706 264.88 33.6244 269.704 33.6244C273.527 33.6244 277.077 34.2876 280.353 35.614C283.63 36.9405 286.475 38.8844 288.887 41.4459C291.299 43.9616 293.188 47.0718 294.553 50.7765C295.964 54.4813 296.669 58.735 296.669 63.5375C296.669 64.5438 296.533 65.2299 296.259 65.5958C295.986 65.9617 295.531 66.1446 294.894 66.1446L245.469 66.1458Z" fill="#EDE9EB"/>
<path d="M341.247 33.6277C346.117 33.6277 350.463 34.4739 354.286 36.1662C358.154 37.8129 361.408 40.1684 364.048 43.2329C366.688 46.2975 368.69 50.0023 370.055 54.3475C371.466 58.647 372.172 63.4724 372.172 68.8238C372.172 74.1751 371.466 79.0005 370.055 83.3C368.69 87.5995 366.688 91.2815 364.048 94.3458C361.408 97.4101 358.154 99.7657 354.286 101.412C350.463 103.059 346.117 103.882 341.247 103.882C336.377 103.882 332.008 103.059 328.139 101.412C324.316 99.7659 321.062 97.4103 318.377 94.3458C315.738 91.2812 313.712 87.5993 312.301 83.3C310.936 79.0005 310.253 74.1751 310.253 68.8238C310.253 63.4724 310.936 58.647 312.301 54.3475C313.712 50.0021 315.737 46.2973 318.377 43.2329C321.062 40.1684 324.316 37.8128 328.139 36.1662C332.008 34.4739 336.377 33.6277 341.247 33.6277ZM341.247 98.7353C345.297 98.7353 348.824 98.0493 351.828 96.6771C354.877 95.2591 357.403 93.2466 359.405 90.6394C361.453 88.0322 362.978 84.8991 363.979 81.2401C364.981 77.5352 365.481 73.3958 365.481 68.8219C365.481 64.2938 364.981 60.1773 363.979 56.4725C362.978 52.7676 361.453 49.6116 359.405 47.0043C357.403 44.3515 354.877 42.316 351.828 40.8979C348.824 39.48 345.297 38.771 341.247 38.771C337.196 38.771 333.647 39.48 330.597 40.8979C327.593 42.3158 325.068 44.3513 323.02 47.0043C321.017 49.6115 319.493 52.7675 318.446 56.4725C317.445 60.1773 316.944 64.2938 316.944 68.8219C316.944 73.3958 317.445 77.5352 318.446 81.2401C319.493 84.8991 321.017 88.0322 323.02 90.6394C325.068 93.2466 327.594 95.2591 330.597 96.6771C333.646 98.0493 337.196 98.7353 341.247 98.7353Z" fill="#EDE9EB"/>
<path d="M396.75 51.1915C397.797 48.4014 398.98 45.9316 400.3 43.782C401.665 41.5865 403.213 39.7341 404.942 38.2247C406.717 36.7153 408.674 35.5718 410.813 34.7943C412.997 33.971 415.409 33.5593 418.049 33.5593C419.46 33.5593 420.848 33.6965 422.213 33.971C423.579 34.1997 424.785 34.6342 425.831 35.2745L425.285 39.8027C425.058 40.5346 424.625 40.9005 423.988 40.9005C423.442 40.9005 422.6 40.7404 421.462 40.4202C420.37 40.1001 418.914 39.94 417.093 39.94C414.454 39.94 412.11 40.3516 410.062 41.1749C408.059 41.9525 406.239 43.1417 404.601 44.7426C403.008 46.3435 401.597 48.3331 400.368 50.7115C399.185 53.0442 398.092 55.7428 397.091 58.8072V102.991H390.538V34.7264H394.019C394.793 34.7264 395.339 34.8864 395.658 35.2066C395.976 35.5268 396.181 36.0757 396.272 36.8532L396.75 51.1915Z" fill="#EDE9EB"/>
<path d="M475.391 69.9898C468.928 70.2185 463.353 70.7445 458.665 71.5678C454.023 72.3453 450.177 73.4202 447.128 74.7924C444.124 76.1646 441.894 77.8112 440.438 79.7323C438.981 81.6076 438.253 83.7573 438.253 86.1816C438.253 88.4685 438.617 90.4581 439.345 92.1504C440.119 93.7971 441.12 95.1692 442.349 96.267C443.623 97.319 445.08 98.0965 446.718 98.5997C448.357 99.1028 450.063 99.3544 451.838 99.3544C454.478 99.3544 456.89 99.0799 459.074 98.5311C461.304 97.9365 463.352 97.136 465.218 96.1297C467.13 95.0778 468.905 93.8428 470.543 92.4249C472.181 91.0069 473.797 89.4747 475.39 87.8281L475.391 69.9898ZM435.454 44.3984C439.004 40.8308 442.736 38.1322 446.65 36.3027C450.565 34.4732 455.002 33.5584 459.963 33.5583C463.604 33.5583 466.789 34.153 469.52 35.3422C472.251 36.4857 474.503 38.1552 476.278 40.3506C478.099 42.5004 479.464 45.1304 480.374 48.2406C481.285 51.3051 481.74 54.7355 481.74 58.5319V102.991H479.145C477.78 102.991 476.938 102.35 476.62 101.07L475.664 92.2877C473.798 94.1173 471.932 95.7639 470.066 97.2276C468.245 98.6913 466.334 99.9262 464.331 100.932C462.329 101.939 460.167 102.716 457.846 103.265C455.525 103.814 452.976 104.089 450.2 104.089C447.879 104.089 445.626 103.745 443.442 103.059C441.257 102.373 439.301 101.321 437.571 99.9033C435.887 98.4854 434.522 96.6787 433.475 94.4831C432.474 92.2419 431.973 89.566 431.973 86.4556C431.973 83.574 432.792 80.8982 434.431 78.4281C436.069 75.958 438.641 73.8083 442.145 71.9788C445.65 70.1494 450.132 68.6858 455.594 67.5879C461.1 66.4901 467.7 65.8498 475.391 65.6669V58.5314C475.391 52.2193 474.026 47.371 471.295 43.9864C468.61 40.5559 464.605 38.8407 459.28 38.8407C456.003 38.8407 453.204 39.2981 450.883 40.2129C448.607 41.1277 446.673 42.1339 445.08 43.2317C443.487 44.3294 442.19 45.3356 441.189 46.2504C440.188 47.1652 439.346 47.6226 438.663 47.6226C438.162 47.6226 437.753 47.5083 437.434 47.2796C437.116 47.0509 436.842 46.7536 436.615 46.3877L435.454 44.3984Z" fill="#EDE9EB"/>
<path d="M551.092 61.9607C551.092 58.3016 550.569 55.0313 549.522 52.1497C548.521 49.2224 547.087 46.7525 545.221 44.7402C543.355 42.7276 541.125 41.1954 538.531 40.1433C535.982 39.0456 533.16 38.4967 530.066 38.4967C526.562 38.4967 523.421 39.0456 520.645 40.1433C517.869 41.2411 515.457 42.8191 513.409 44.8773C511.406 46.9356 509.79 49.4055 508.562 52.2869C507.333 55.1684 506.514 58.3931 506.104 61.9608L551.092 61.9607ZM505.763 66.1458V67.4494C505.763 72.5721 506.354 77.0775 507.537 80.9654C508.721 84.8533 510.405 88.1236 512.589 90.7763C514.774 93.3835 517.413 95.3502 520.508 96.6764C523.603 98.0029 527.062 98.6661 530.885 98.6661C534.298 98.6661 537.256 98.3002 539.759 97.5683C542.262 96.7908 544.356 95.9446 546.04 95.0298C547.769 94.0692 549.135 93.2231 550.136 92.4912C551.137 91.7137 551.865 91.3249 552.32 91.3249C552.912 91.3249 553.367 91.5536 553.686 92.0109L555.461 94.2065C554.368 95.5786 552.912 96.8593 551.092 98.0486C549.317 99.2378 547.314 100.267 545.084 101.136C542.9 101.959 540.533 102.622 537.984 103.126C535.481 103.629 532.955 103.88 530.407 103.88C525.765 103.88 521.532 103.08 517.709 101.479C513.886 99.8324 510.609 97.4539 507.878 94.3435C505.148 91.2332 503.031 87.4368 501.53 82.9544C500.073 78.4263 499.345 73.2577 499.345 67.4486C499.345 62.5544 500.028 58.0491 501.393 53.9326C502.804 49.7703 504.807 46.2026 507.401 43.2296C510.04 40.2108 513.249 37.8553 517.026 36.1629C520.849 34.4706 525.173 33.6244 529.997 33.6244C533.82 33.6244 537.37 34.2876 540.647 35.614C543.923 36.9405 546.768 38.8844 549.18 41.4459C551.592 43.9616 553.481 47.0718 554.846 50.7765C556.257 54.4813 556.962 58.735 556.962 63.5375C556.962 64.5438 556.826 65.2299 556.553 65.5958C556.28 65.9617 555.825 66.1446 555.187 66.1446L505.763 66.1458Z" fill="#EDE9EB"/>
</svg>
