<svg version="1.1" viewBox="0 0 108.48 21.167" xmlns="http://www.w3.org/2000/svg">
  <g transform="scale(.99739 1.0026)" fill="currentColor" stroke-width=".1372" aria-label="Meteorae">
    <path d="m19.735 1.1342v18.633h-1.172v-15.881q0-0.34237 0.0395-0.72424l-7.3346 13.023q-0.18435 0.34237-0.52672 0.34237h-0.21069q-0.34237 0-0.52672-0.34237l-7.5321-13.049q0.039504 0.39504 0.039504 0.75058v15.881h-1.1851v-18.633h0.93493q0.18435 0 0.2897 0.039504t0.21069 0.21069l7.5189 12.957q0.19752 0.3687 0.34237 0.79008 0.07901-0.21069 0.17118-0.40821 0.09218-0.21069 0.19752-0.39504l7.3082-12.944q0.10534-0.17118 0.21069-0.21069 0.11851-0.039504 0.30286-0.039504z" />
    <path d="m33.417 11.892q0-1.0534-0.30286-1.883-0.2897-0.84275-0.82958-1.4221-0.53989-0.57939-1.2905-0.88226-0.73741-0.31603-1.6328-0.31603-1.0139 0-1.8172 0.31603t-1.3958 0.90859q-0.57939 0.59256-0.93493 1.4221-0.35554 0.82958-0.47405 1.8567zm-8.7436 0.80325v0.25019q0 1.4748 0.34237 2.5941t0.97443 1.883q0.63206 0.75058 1.5275 1.1324t2.0015 0.38187q0.9876 0 1.7118-0.21069 0.72424-0.22386 1.2115-0.48722 0.50038-0.27653 0.79008-0.48722 0.2897-0.22386 0.42138-0.22386 0.17118 0 0.26336 0.13168l0.34237 0.42138q-0.31603 0.39504-0.84275 0.73741-0.51355 0.34237-1.1588 0.59256-0.63206 0.23702-1.3695 0.38187-0.72424 0.14485-1.4616 0.14485-1.3431 0-2.4492-0.46088-1.1061-0.47405-1.8962-1.3695t-1.2246-2.1859q-0.42138-1.3036-0.42138-2.976 0-1.409 0.39504-2.5941 0.40821-1.1983 1.1588-2.0542 0.76374-0.86909 1.8567-1.3563 1.1061-0.48722 2.5019-0.48722 1.1061 0 2.0542 0.38187t1.646 1.1193q0.6979 0.72424 1.0929 1.7908 0.40821 1.0666 0.40821 2.4492 0 0.2897-0.07901 0.39504t-0.26336 0.10534z" />
    <path d="m41.502 19.978q-1.33 0-2.0805-0.73741-0.73741-0.73741-0.73741-2.2781v-8.9542h-1.883q-0.14485 0-0.23702-0.079008-0.09218-0.079008-0.09218-0.22386v-0.48722l2.2386-0.15802 0.31603-4.6878q0.02634-0.11851 0.10534-0.21069 0.07901-0.092176 0.22386-0.092176h0.59256v5.0038h4.1348v0.93493h-4.1348v8.8884q0 0.53989 0.13168 0.93493 0.14485 0.38187 0.38187 0.63206 0.25019 0.25019 0.57939 0.3687t0.71107 0.11851q0.47405 0 0.81642-0.13168 0.34237-0.14485 0.59256-0.30286 0.25019-0.17118 0.40821-0.30286 0.15802-0.14485 0.25019-0.14485 0.10534 0 0.21069 0.13168l0.34237 0.55306q-0.50038 0.55306-1.2773 0.89542-0.76374 0.3292-1.5933 0.3292z" />
    <path d="m56.092 11.892q0-1.0534-0.30286-1.883-0.2897-0.84275-0.82958-1.4221-0.53989-0.57939-1.2905-0.88226-0.73741-0.31603-1.6328-0.31603-1.0139 0-1.8172 0.31603t-1.3958 0.90859q-0.57939 0.59256-0.93493 1.4221-0.35554 0.82958-0.47405 1.8567zm-8.7436 0.80325v0.25019q0 1.4748 0.34237 2.5941t0.97443 1.883q0.63206 0.75058 1.5275 1.1324t2.0015 0.38187q0.9876 0 1.7118-0.21069 0.72424-0.22386 1.2115-0.48722 0.50038-0.27653 0.79008-0.48722 0.2897-0.22386 0.42138-0.22386 0.17118 0 0.26336 0.13168l0.34237 0.42138q-0.31603 0.39504-0.84275 0.73741-0.51355 0.34237-1.1588 0.59256-0.63206 0.23702-1.3695 0.38187-0.72424 0.14485-1.4616 0.14485-1.3431 0-2.4492-0.46088-1.1061-0.47405-1.8962-1.3695t-1.2246-2.1859q-0.42138-1.3036-0.42138-2.976 0-1.409 0.39504-2.5941 0.40821-1.1983 1.1588-2.0542 0.76374-0.86909 1.8567-1.3563 1.1061-0.48722 2.5019-0.48722 1.1061 0 2.0542 0.38187t1.646 1.1193q0.6979 0.72424 1.0929 1.7908 0.40821 1.0666 0.40821 2.4492 0 0.2897-0.07901 0.39504t-0.26336 0.10534z" />
    <path d="m65.823 6.4541q1.409 0 2.5151 0.48722 1.1193 0.47405 1.883 1.3563 0.76374 0.88226 1.1588 2.1332 0.40821 1.2378 0.40821 2.7784t-0.40821 2.7784q-0.39504 1.2378-1.1588 2.12t-1.883 1.3563q-1.1061 0.47405-2.5151 0.47405t-2.5283-0.47405q-1.1061-0.47405-1.883-1.3563-0.76374-0.88226-1.172-2.12-0.39504-1.2378-0.39504-2.7784t0.39504-2.7784q0.40821-1.251 1.172-2.1332 0.77691-0.88226 1.883-1.3563 1.1193-0.48722 2.5283-0.48722zm0 12.496q1.172 0 2.041-0.39504 0.88226-0.40821 1.4616-1.1588 0.59256-0.75058 0.88226-1.804 0.2897-1.0666 0.2897-2.3834 0-1.3036-0.2897-2.3702-0.2897-1.0666-0.88226-1.8172-0.57939-0.76374-1.4616-1.172-0.86909-0.40821-2.041-0.40821t-2.0542 0.40821q-0.86909 0.40821-1.4616 1.172-0.57939 0.75058-0.88226 1.8172-0.2897 1.0666-0.2897 2.3702 0 1.3168 0.2897 2.3834 0.30286 1.0534 0.88226 1.804 0.59256 0.75058 1.4616 1.1588 0.88226 0.39504 2.0542 0.39504z" />
    <path d="m76.529 9.8251q0.30286-0.80325 0.68474-1.4221 0.39504-0.63206 0.89542-1.0666 0.51355-0.43454 1.1324-0.6584 0.63206-0.23702 1.3958-0.23702 0.40821 0 0.80325 0.079008 0.39504 0.06584 0.6979 0.25019l-0.10534 0.86909q-0.06584 0.21069-0.25019 0.21069-0.15802 0-0.48722-0.092176-0.31603-0.092176-0.84275-0.092176-0.76374 0-1.3563 0.23702-0.57939 0.22386-1.0534 0.68474-0.46088 0.46088-0.81642 1.1456-0.34237 0.67157-0.63206 1.5538v8.4802h-1.2641v-13.102h0.67157q0.22386 0 0.31603 0.092176 0.09218 0.092176 0.11851 0.31603z" />
    <path d="m91.698 13.433q-1.8699 0.06584-3.2262 0.30286-1.3431 0.22386-2.2254 0.6189-0.86909 0.39504-1.2905 0.9481-0.42138 0.53989-0.42138 1.2378 0 0.6584 0.21069 1.1456 0.22386 0.47405 0.57939 0.79008 0.3687 0.30286 0.84275 0.44771t0.9876 0.14485q0.76374 0 1.3958-0.15802 0.64523-0.17118 1.1851-0.46088 0.55306-0.30286 1.0271-0.71107t0.93493-0.88226zm-7.7033-4.9117q1.0271-1.0271 2.1596-1.5538t2.5678-0.52672q1.0534 0 1.8435 0.34237 0.79008 0.3292 1.3036 0.96126 0.52672 0.6189 0.79008 1.5143 0.26336 0.88226 0.26336 1.9752v8.5329h-0.50038q-0.39504 0-0.48722-0.3687l-0.18435-1.6855q-0.53989 0.52672-1.0798 0.9481-0.52672 0.42138-1.1061 0.71107t-1.251 0.44771-1.4748 0.15802q-0.67157 0-1.3036-0.19752t-1.1324-0.60573q-0.48722-0.40821-0.79008-1.0403-0.2897-0.64523-0.2897-1.5407 0-0.82958 0.47405-1.5407t1.488-1.2378 2.5941-0.84275q1.5933-0.31603 3.8187-0.3687v-1.3695q0-1.8172-0.79008-2.7916-0.77691-0.9876-2.3176-0.9876-0.9481 0-1.6197 0.26336-0.6584 0.26336-1.1193 0.57939-0.46088 0.31603-0.75058 0.57939t-0.48722 0.26336q-0.14485 0-0.23702-0.06584-0.09218-0.06584-0.15802-0.17118z" />
    <path d="m106.3 11.892q0-1.0534-0.30286-1.883-0.2897-0.84275-0.82959-1.4221-0.53989-0.57939-1.2905-0.88226-0.73741-0.31603-1.6328-0.31603-1.0139 0-1.8172 0.31603-0.80325 0.31603-1.3958 0.90859-0.57939 0.59256-0.93493 1.4221-0.35554 0.82958-0.47405 1.8567zm-8.7436 0.80325v0.25019q0 1.4748 0.34237 2.5941t0.97443 1.883q0.63206 0.75058 1.5275 1.1324 0.89542 0.38187 2.0015 0.38187 0.9876 0 1.7118-0.21069 0.72424-0.22386 1.2115-0.48722 0.50038-0.27653 0.79008-0.48722 0.28969-0.22386 0.42137-0.22386 0.17119 0 0.26336 0.13168l0.34237 0.42138q-0.31603 0.39504-0.84275 0.73741-0.51355 0.34237-1.1588 0.59256-0.63207 0.23702-1.3695 0.38187-0.72424 0.14485-1.4616 0.14485-1.3431 0-2.4493-0.46088-1.1061-0.47405-1.8962-1.3695t-1.2246-2.1859q-0.42138-1.3036-0.42138-2.976 0-1.409 0.39504-2.5941 0.40821-1.1983 1.1588-2.0542 0.76374-0.86909 1.8567-1.3563 1.1061-0.48722 2.5019-0.48722 1.1061 0 2.0542 0.38187 0.94809 0.38187 1.646 1.1193 0.6979 0.72424 1.0929 1.7908 0.40821 1.0666 0.40821 2.4492 0 0.2897-0.079 0.39504t-0.26336 0.10534z" />
  </g>
</svg>
